<mxfile host="65bd71144e" scale="2" border="0">
    <diagram id="H_bka_uvc2m1z5hm4pM-" name="useCaseDiagramMerged">
        <mxGraphModel dx="2171" dy="2077" grid="1" gridSize="10" guides="1" tooltips="1" connect="1" arrows="1" fold="1" page="1" pageScale="1" pageWidth="827" pageHeight="1169" math="0" shadow="0">
            <root>
                <mxCell id="0"/>
                <mxCell id="1" parent="0"/>
                <mxCell id="Ls0L_75_kJ0PLhLrq7M0-1" value="User" style="shape=umlActor;html=1;verticalLabelPosition=bottom;verticalAlign=top;align=center;" vertex="1" parent="1">
                    <mxGeometry x="60" y="499" width="30" height="60" as="geometry"/>
                </mxCell>
                <mxCell id="Ls0L_75_kJ0PLhLrq7M0-2" value="Coocker" style="shape=umlActor;html=1;verticalLabelPosition=bottom;verticalAlign=top;align=center;" vertex="1" parent="1">
                    <mxGeometry x="1560" y="499" width="30" height="60" as="geometry"/>
                </mxCell>
                <mxCell id="Ls0L_75_kJ0PLhLrq7M0-3" value="&lt;font style=&quot;font-size: 11px;&quot;&gt;Pressione del pulsante di accensione&lt;/font&gt;" style="ellipse;whiteSpace=wrap;html=1;" vertex="1" parent="1">
                    <mxGeometry x="210" y="246" width="152" height="80" as="geometry"/>
                </mxCell>
                <mxCell id="Ls0L_75_kJ0PLhLrq7M0-4" value="&lt;font style=&quot;font-size: 11px;&quot;&gt;Richiede accensione del sistema&lt;/font&gt;" style="ellipse;whiteSpace=wrap;html=1;" vertex="1" parent="1">
                    <mxGeometry x="210" y="396" width="152" height="80" as="geometry"/>
                </mxCell>
                <mxCell id="Ls0L_75_kJ0PLhLrq7M0-5" value="&lt;font style=&quot;font-size: 11px;&quot;&gt;Pressione del pulsante di spegnimento per almeno 1 secondo&lt;/font&gt;" style="ellipse;whiteSpace=wrap;html=1;" vertex="1" parent="1">
                    <mxGeometry x="210" y="556" width="152" height="80" as="geometry"/>
                </mxCell>
                <mxCell id="Ls0L_75_kJ0PLhLrq7M0-6" value="&lt;font style=&quot;font-size: 11px;&quot;&gt;Richiede spegnimento del sistema&lt;/font&gt;" style="ellipse;whiteSpace=wrap;html=1;" vertex="1" parent="1">
                    <mxGeometry x="210" y="716" width="152" height="80" as="geometry"/>
                </mxCell>
                <mxCell id="Ls0L_75_kJ0PLhLrq7M0-9" value="&amp;lt;&amp;lt;include&amp;gt;&amp;gt;" style="edgeStyle=none;html=1;endArrow=open;verticalAlign=bottom;dashed=1;labelBackgroundColor=none;fontSize=11;exitX=0.5;exitY=0;exitDx=0;exitDy=0;" edge="1" parent="1" source="Ls0L_75_kJ0PLhLrq7M0-4" target="Ls0L_75_kJ0PLhLrq7M0-3">
                    <mxGeometry width="160" relative="1" as="geometry">
                        <mxPoint x="228" y="436" as="sourcePoint"/>
                        <mxPoint x="286" y="336" as="targetPoint"/>
                    </mxGeometry>
                </mxCell>
                <mxCell id="Ls0L_75_kJ0PLhLrq7M0-10" value="&amp;lt;&amp;lt;include&amp;gt;&amp;gt;" style="edgeStyle=none;html=1;endArrow=open;verticalAlign=bottom;dashed=1;labelBackgroundColor=none;fontSize=11;entryX=0.5;entryY=1;entryDx=0;entryDy=0;exitX=0.5;exitY=0;exitDx=0;exitDy=0;" edge="1" parent="1" source="Ls0L_75_kJ0PLhLrq7M0-6" target="Ls0L_75_kJ0PLhLrq7M0-5">
                    <mxGeometry y="-2" width="160" relative="1" as="geometry">
                        <mxPoint x="228" y="706" as="sourcePoint"/>
                        <mxPoint x="388" y="706" as="targetPoint"/>
                        <mxPoint as="offset"/>
                    </mxGeometry>
                </mxCell>
                <mxCell id="Ls0L_75_kJ0PLhLrq7M0-11" value="Il pulsante di accensione e spegnimento coincidono." style="shape=note;size=20;whiteSpace=wrap;html=1;fontSize=11;" vertex="1" parent="1">
                    <mxGeometry x="236" y="117" width="100" height="100" as="geometry"/>
                </mxCell>
                <mxCell id="Ls0L_75_kJ0PLhLrq7M0-12" value="" style="endArrow=none;dashed=1;html=1;dashPattern=1 3;strokeWidth=2;fontSize=11;entryX=0.5;entryY=1;entryDx=0;entryDy=0;entryPerimeter=0;exitX=0.5;exitY=0;exitDx=0;exitDy=0;" edge="1" parent="1" source="Ls0L_75_kJ0PLhLrq7M0-3" target="Ls0L_75_kJ0PLhLrq7M0-11">
                    <mxGeometry width="50" height="50" relative="1" as="geometry">
                        <mxPoint x="261" y="207" as="sourcePoint"/>
                        <mxPoint x="311" y="157" as="targetPoint"/>
                    </mxGeometry>
                </mxCell>
                <mxCell id="Ls0L_75_kJ0PLhLrq7M0-13" value="Il pulsante di accensione e spegnimento coincidono." style="shape=note;size=20;whiteSpace=wrap;html=1;fontSize=11;" vertex="1" parent="1">
                    <mxGeometry x="236" y="817" width="100" height="100" as="geometry"/>
                </mxCell>
                <mxCell id="Ls0L_75_kJ0PLhLrq7M0-14" value="" style="endArrow=none;dashed=1;html=1;dashPattern=1 3;strokeWidth=2;fontSize=11;entryX=0.5;entryY=1;entryDx=0;entryDy=0;exitX=0.5;exitY=0;exitDx=0;exitDy=0;exitPerimeter=0;" edge="1" parent="1" source="Ls0L_75_kJ0PLhLrq7M0-13" target="Ls0L_75_kJ0PLhLrq7M0-6">
                    <mxGeometry width="50" height="50" relative="1" as="geometry">
                        <mxPoint x="286" y="917" as="sourcePoint"/>
                        <mxPoint x="288" y="817" as="targetPoint"/>
                    </mxGeometry>
                </mxCell>
                <mxCell id="Ls0L_75_kJ0PLhLrq7M0-15" value="&lt;font style=&quot;font-size: 11px;&quot;&gt;Accensione del sistema&lt;/font&gt;" style="ellipse;whiteSpace=wrap;html=1;" vertex="1" parent="1">
                    <mxGeometry x="1280" y="309" width="152" height="80" as="geometry"/>
                </mxCell>
                <mxCell id="Ls0L_75_kJ0PLhLrq7M0-16" value="&lt;font style=&quot;font-size: 11px;&quot;&gt;Settaggio potenza a 0W&lt;/font&gt;" style="ellipse;whiteSpace=wrap;html=1;" vertex="1" parent="1">
                    <mxGeometry x="1280" y="459" width="152" height="80" as="geometry"/>
                </mxCell>
                <mxCell id="Ls0L_75_kJ0PLhLrq7M0-17" value="&lt;font style=&quot;font-size: 11px;&quot;&gt;Spegnimento indicatori luminosi&lt;br&gt;&lt;/font&gt;" style="ellipse;whiteSpace=wrap;html=1;" vertex="1" parent="1">
                    <mxGeometry x="1280" y="619" width="152" height="80" as="geometry"/>
                </mxCell>
                <mxCell id="Ls0L_75_kJ0PLhLrq7M0-18" value="&lt;font style=&quot;font-size: 11px;&quot;&gt;Spegnimento del sistema&lt;/font&gt;" style="ellipse;whiteSpace=wrap;html=1;" vertex="1" parent="1">
                    <mxGeometry x="1280" y="779" width="152" height="80" as="geometry"/>
                </mxCell>
                <mxCell id="Ls0L_75_kJ0PLhLrq7M0-19" value="&amp;lt;&amp;lt;include&amp;gt;&amp;gt;" style="edgeStyle=none;html=1;endArrow=open;verticalAlign=bottom;dashed=1;labelBackgroundColor=none;fontSize=11;exitX=0.5;exitY=1;exitDx=0;exitDy=0;entryX=0.5;entryY=0;entryDx=0;entryDy=0;" edge="1" parent="1" source="Ls0L_75_kJ0PLhLrq7M0-15" target="Ls0L_75_kJ0PLhLrq7M0-16">
                    <mxGeometry width="160" relative="1" as="geometry">
                        <mxPoint x="1298" y="499" as="sourcePoint"/>
                        <mxPoint x="1410" y="420" as="targetPoint"/>
                    </mxGeometry>
                </mxCell>
                <mxCell id="Ls0L_75_kJ0PLhLrq7M0-20" value="&amp;lt;&amp;lt;include&amp;gt;&amp;gt;" style="edgeStyle=none;html=1;endArrow=open;verticalAlign=bottom;dashed=1;labelBackgroundColor=none;fontSize=11;entryX=0.5;entryY=1;entryDx=0;entryDy=0;exitX=0.5;exitY=0;exitDx=0;exitDy=0;" edge="1" parent="1" source="Ls0L_75_kJ0PLhLrq7M0-18" target="Ls0L_75_kJ0PLhLrq7M0-17">
                    <mxGeometry y="-2" width="160" relative="1" as="geometry">
                        <mxPoint x="1298" y="769" as="sourcePoint"/>
                        <mxPoint x="1458" y="769" as="targetPoint"/>
                        <mxPoint as="offset"/>
                    </mxGeometry>
                </mxCell>
                <mxCell id="Ls0L_75_kJ0PLhLrq7M0-23" value="&lt;font style=&quot;font-size: 11px;&quot;&gt;Attivazione indicatore luminoso&lt;/font&gt;" style="ellipse;whiteSpace=wrap;html=1;" vertex="1" parent="1">
                    <mxGeometry x="1280" y="150" width="152" height="80" as="geometry"/>
                </mxCell>
                <mxCell id="Ls0L_75_kJ0PLhLrq7M0-24" value="&amp;lt;&amp;lt;include&amp;gt;&amp;gt;" style="edgeStyle=none;html=1;endArrow=open;verticalAlign=bottom;dashed=1;labelBackgroundColor=none;fontSize=11;exitX=0.5;exitY=0;exitDx=0;exitDy=0;" edge="1" parent="1" source="Ls0L_75_kJ0PLhLrq7M0-15" target="Ls0L_75_kJ0PLhLrq7M0-23">
                    <mxGeometry width="160" relative="1" as="geometry">
                        <mxPoint x="1366" y="399" as="sourcePoint"/>
                        <mxPoint x="1366" y="469" as="targetPoint"/>
                    </mxGeometry>
                </mxCell>
                <mxCell id="Ls0L_75_kJ0PLhLrq7M0-25" value="&amp;lt;&amp;lt;use&amp;gt;&amp;gt;" style="edgeStyle=none;html=1;endArrow=open;verticalAlign=bottom;dashed=1;labelBackgroundColor=none;fontSize=11;exitX=0;exitY=0.5;exitDx=0;exitDy=0;entryX=1;entryY=0.5;entryDx=0;entryDy=0;" edge="1" parent="1" source="Ls0L_75_kJ0PLhLrq7M0-15" target="Ls0L_75_kJ0PLhLrq7M0-3">
                    <mxGeometry width="160" relative="1" as="geometry">
                        <mxPoint x="976" y="349" as="sourcePoint"/>
                        <mxPoint x="810" y="340" as="targetPoint"/>
                        <Array as="points">
                            <mxPoint x="1200" y="350"/>
                            <mxPoint x="1200" y="80"/>
                            <mxPoint x="400" y="80"/>
                            <mxPoint x="400" y="286"/>
                        </Array>
                    </mxGeometry>
                </mxCell>
                <mxCell id="Ls0L_75_kJ0PLhLrq7M0-26" value="&amp;lt;&amp;lt;use&amp;gt;&amp;gt;" style="edgeStyle=none;html=1;endArrow=open;verticalAlign=bottom;dashed=1;labelBackgroundColor=none;fontSize=11;exitX=0;exitY=0.5;exitDx=0;exitDy=0;entryX=1;entryY=0.5;entryDx=0;entryDy=0;" edge="1" parent="1" source="Ls0L_75_kJ0PLhLrq7M0-18" target="Ls0L_75_kJ0PLhLrq7M0-6">
                    <mxGeometry width="160" relative="1" as="geometry">
                        <mxPoint x="870.9999999999998" y="710" as="sourcePoint"/>
                        <mxPoint x="754.9999999999995" y="710" as="targetPoint"/>
                        <Array as="points">
                            <mxPoint x="1200" y="819"/>
                            <mxPoint x="1200" y="960"/>
                            <mxPoint x="390" y="960"/>
                            <mxPoint x="390" y="756"/>
                        </Array>
                    </mxGeometry>
                </mxCell>
                <mxCell id="x5owpVDUKT_WlZzTMBwm-3" value="&lt;font style=&quot;font-size: 11px;&quot;&gt;Pressione del pulsante di aumento della potenza per almeno 1 secondo&lt;/font&gt;" style="ellipse;whiteSpace=wrap;html=1;" vertex="1" parent="1">
                    <mxGeometry x="530" y="160" width="152" height="80" as="geometry"/>
                </mxCell>
                <mxCell id="x5owpVDUKT_WlZzTMBwm-4" value="&lt;font style=&quot;font-size: 11px;&quot;&gt;Richiede aumento della potenza&lt;/font&gt;" style="ellipse;whiteSpace=wrap;html=1;" vertex="1" parent="1">
                    <mxGeometry x="530" y="319" width="152" height="80" as="geometry"/>
                </mxCell>
                <mxCell id="x5owpVDUKT_WlZzTMBwm-5" value="&lt;font style=&quot;font-size: 11px;&quot;&gt;Richiede diminuzione della potenza&lt;/font&gt;" style="ellipse;whiteSpace=wrap;html=1;" vertex="1" parent="1">
                    <mxGeometry x="530" y="639" width="152" height="80" as="geometry"/>
                </mxCell>
                <mxCell id="x5owpVDUKT_WlZzTMBwm-6" value="&lt;font style=&quot;font-size: 11px;&quot;&gt;Pressione del pulsante di diminuzione della potenza per almeno 1 secondo&lt;/font&gt;" style="ellipse;whiteSpace=wrap;html=1;" vertex="1" parent="1">
                    <mxGeometry x="530" y="800" width="152" height="80" as="geometry"/>
                </mxCell>
                <mxCell id="x5owpVDUKT_WlZzTMBwm-8" value="&amp;lt;&amp;lt;include&amp;gt;&amp;gt;" style="edgeStyle=none;html=1;endArrow=open;verticalAlign=bottom;dashed=1;labelBackgroundColor=none;fontSize=11;exitX=0.5;exitY=0;exitDx=0;exitDy=0;" edge="1" parent="1" source="x5owpVDUKT_WlZzTMBwm-4" target="x5owpVDUKT_WlZzTMBwm-3">
                    <mxGeometry width="160" relative="1" as="geometry">
                        <mxPoint x="590" y="359" as="sourcePoint"/>
                        <mxPoint x="648" y="259" as="targetPoint"/>
                    </mxGeometry>
                </mxCell>
                <mxCell id="x5owpVDUKT_WlZzTMBwm-9" value="&lt;font style=&quot;font-size: 11px;&quot;&gt;Accensione indicatore luminoso in accordo alla potenza erogata&lt;/font&gt;" style="ellipse;whiteSpace=wrap;html=1;" vertex="1" parent="1">
                    <mxGeometry x="740" y="318" width="152" height="80" as="geometry"/>
                </mxCell>
                <mxCell id="x5owpVDUKT_WlZzTMBwm-10" value="&lt;font style=&quot;font-size: 11px;&quot;&gt;Controllo presenza pentola&lt;/font&gt;" style="ellipse;whiteSpace=wrap;html=1;" vertex="1" parent="1">
                    <mxGeometry x="748" y="639" width="152" height="80" as="geometry"/>
                </mxCell>
                <mxCell id="x5owpVDUKT_WlZzTMBwm-11" value="&amp;lt;&amp;lt;use&amp;gt;&amp;gt;" style="edgeStyle=none;html=1;endArrow=open;verticalAlign=bottom;dashed=1;labelBackgroundColor=none;fontSize=11;exitX=0.5;exitY=0;exitDx=0;exitDy=0;entryX=1;entryY=0.5;entryDx=0;entryDy=0;" edge="1" parent="1" source="x5owpVDUKT_WlZzTMBwm-16" target="x5owpVDUKT_WlZzTMBwm-3">
                    <mxGeometry x="0.5115" width="160" relative="1" as="geometry">
                        <mxPoint x="840" y="200" as="sourcePoint"/>
                        <mxPoint x="770" y="260" as="targetPoint"/>
                        <Array as="points">
                            <mxPoint x="970" y="200"/>
                        </Array>
                        <mxPoint as="offset"/>
                    </mxGeometry>
                </mxCell>
                <mxCell id="x5owpVDUKT_WlZzTMBwm-12" value="&lt;font style=&quot;font-size: 11px;&quot;&gt;Posizionamento della pentola&lt;/font&gt;" style="ellipse;whiteSpace=wrap;html=1;" vertex="1" parent="1">
                    <mxGeometry x="530" y="479" width="152" height="80" as="geometry"/>
                </mxCell>
                <mxCell id="x5owpVDUKT_WlZzTMBwm-13" value="&amp;lt;&amp;lt;include&amp;gt;&amp;gt;" style="edgeStyle=none;html=1;endArrow=open;verticalAlign=bottom;dashed=1;labelBackgroundColor=none;fontSize=11;exitX=0.5;exitY=1;exitDx=0;exitDy=0;entryX=0.5;entryY=0;entryDx=0;entryDy=0;" edge="1" parent="1" source="x5owpVDUKT_WlZzTMBwm-5" target="x5owpVDUKT_WlZzTMBwm-6">
                    <mxGeometry width="160" relative="1" as="geometry">
                        <mxPoint x="540" y="699" as="sourcePoint"/>
                        <mxPoint x="540" y="620" as="targetPoint"/>
                    </mxGeometry>
                </mxCell>
                <mxCell id="x5owpVDUKT_WlZzTMBwm-16" value="&lt;font style=&quot;font-size: 11px;&quot;&gt;Attivazione del fornello alla potenza selezionata&lt;/font&gt;" style="ellipse;whiteSpace=wrap;html=1;" vertex="1" parent="1">
                    <mxGeometry x="892" y="477" width="152" height="80" as="geometry"/>
                </mxCell>
                <mxCell id="x5owpVDUKT_WlZzTMBwm-17" value="&amp;lt;&amp;lt;use&amp;gt;&amp;gt;" style="edgeStyle=none;html=1;endArrow=open;verticalAlign=bottom;dashed=1;labelBackgroundColor=none;fontSize=11;exitX=0.5;exitY=1;exitDx=0;exitDy=0;entryX=1;entryY=0.5;entryDx=0;entryDy=0;" edge="1" parent="1" source="x5owpVDUKT_WlZzTMBwm-16" target="x5owpVDUKT_WlZzTMBwm-6">
                    <mxGeometry x="0.5115" width="160" relative="1" as="geometry">
                        <mxPoint x="978" y="487" as="sourcePoint"/>
                        <mxPoint x="720" y="650" as="targetPoint"/>
                        <Array as="points">
                            <mxPoint x="970" y="840"/>
                        </Array>
                        <mxPoint as="offset"/>
                    </mxGeometry>
                </mxCell>
                <mxCell id="x5owpVDUKT_WlZzTMBwm-18" value="&amp;lt;&amp;lt;include&amp;gt;&amp;gt;" style="edgeStyle=none;html=1;endArrow=open;verticalAlign=bottom;dashed=1;labelBackgroundColor=none;fontSize=11;exitX=0;exitY=0;exitDx=0;exitDy=0;entryX=1;entryY=0.5;entryDx=0;entryDy=0;" edge="1" parent="1" source="x5owpVDUKT_WlZzTMBwm-16" target="x5owpVDUKT_WlZzTMBwm-9">
                    <mxGeometry width="160" relative="1" as="geometry">
                        <mxPoint x="930" y="439" as="sourcePoint"/>
                        <mxPoint x="930" y="360" as="targetPoint"/>
                        <Array as="points">
                            <mxPoint x="914" y="360"/>
                        </Array>
                    </mxGeometry>
                </mxCell>
                <mxCell id="x5owpVDUKT_WlZzTMBwm-19" value="&amp;lt;&amp;lt;include&amp;gt;&amp;gt;" style="edgeStyle=none;html=1;endArrow=open;verticalAlign=bottom;dashed=1;labelBackgroundColor=none;fontSize=11;exitX=0;exitY=1;exitDx=0;exitDy=0;entryX=1;entryY=0.5;entryDx=0;entryDy=0;" edge="1" parent="1" source="x5owpVDUKT_WlZzTMBwm-16" target="x5owpVDUKT_WlZzTMBwm-10">
                    <mxGeometry width="160" relative="1" as="geometry">
                        <mxPoint x="924.2598846298224" y="498.7157287525381" as="sourcePoint"/>
                        <mxPoint x="902" y="368" as="targetPoint"/>
                        <Array as="points">
                            <mxPoint x="914" y="680"/>
                        </Array>
                    </mxGeometry>
                </mxCell>
                <mxCell id="x5owpVDUKT_WlZzTMBwm-20" value="&amp;lt;&amp;lt;use&amp;gt;&amp;gt;" style="edgeStyle=none;html=1;endArrow=open;verticalAlign=bottom;dashed=1;labelBackgroundColor=none;fontSize=11;exitX=0.5;exitY=0;exitDx=0;exitDy=0;entryX=1;entryY=0.5;entryDx=0;entryDy=0;" edge="1" parent="1" source="x5owpVDUKT_WlZzTMBwm-10" target="x5owpVDUKT_WlZzTMBwm-12">
                    <mxGeometry x="0.5115" width="160" relative="1" as="geometry">
                        <mxPoint x="978" y="487" as="sourcePoint"/>
                        <mxPoint x="692" y="210" as="targetPoint"/>
                        <Array as="points">
                            <mxPoint x="824" y="520"/>
                        </Array>
                        <mxPoint as="offset"/>
                    </mxGeometry>
                </mxCell>
                <mxCell id="x5owpVDUKT_WlZzTMBwm-22" value="&lt;p&gt;La nuova potenza verrà applicata&amp;nbsp;&lt;span style=&quot;background-color: initial;&quot;&gt;se entro 5 secondi questa non viene&amp;nbsp;&lt;/span&gt;&lt;span style=&quot;background-color: initial;&quot;&gt;variata ulteriormente.&amp;nbsp; &amp;nbsp; &amp;nbsp;&lt;/span&gt;&lt;/p&gt;&lt;p&gt;&lt;/p&gt;&lt;div style=&quot;&quot;&gt;&lt;/div&gt;&lt;p&gt;&lt;/p&gt;" style="shape=note;size=20;whiteSpace=wrap;html=1;fontSize=11;align=left;" vertex="1" parent="1">
                    <mxGeometry x="987" y="310" width="183" height="89" as="geometry"/>
                </mxCell>
                <mxCell id="x5owpVDUKT_WlZzTMBwm-23" value="&lt;p&gt;Qualora la pentola venisse rimossa mentre il fornello è attivo, il &lt;br&gt;    dispositivo segnala l'anomalia attraverso un apposito indicatore e se entro 10 secondi la pentola non viene riposizionata, il fornello ritorna &lt;br&gt;    alla potenza di 0W.&amp;nbsp; &amp;nbsp;&lt;br&gt;&lt;/p&gt;&lt;p&gt;&lt;/p&gt;&lt;div style=&quot;&quot;&gt;&lt;/div&gt;&lt;p&gt;&lt;/p&gt;" style="shape=note;size=20;whiteSpace=wrap;html=1;fontSize=11;align=left;" vertex="1" parent="1">
                    <mxGeometry x="987" y="639" width="183" height="131" as="geometry"/>
                </mxCell>
                <mxCell id="x5owpVDUKT_WlZzTMBwm-24" value="" style="endArrow=none;dashed=1;html=1;dashPattern=1 3;strokeWidth=2;fontSize=11;entryX=1;entryY=1;entryDx=0;entryDy=0;exitX=0;exitY=0;exitDx=81.5;exitDy=0;exitPerimeter=0;" edge="1" parent="1" source="x5owpVDUKT_WlZzTMBwm-23" target="x5owpVDUKT_WlZzTMBwm-16">
                    <mxGeometry width="50" height="50" relative="1" as="geometry">
                        <mxPoint x="1030" y="638" as="sourcePoint"/>
                        <mxPoint x="1030" y="557" as="targetPoint"/>
                        <Array as="points">
                            <mxPoint x="1070" y="545"/>
                        </Array>
                    </mxGeometry>
                </mxCell>
                <mxCell id="x5owpVDUKT_WlZzTMBwm-25" value="" style="endArrow=none;dashed=1;html=1;dashPattern=1 3;strokeWidth=2;fontSize=11;entryX=0.5;entryY=1;entryDx=0;entryDy=0;exitX=1;exitY=0;exitDx=0;exitDy=0;entryPerimeter=0;" edge="1" parent="1" source="x5owpVDUKT_WlZzTMBwm-16" target="x5owpVDUKT_WlZzTMBwm-22">
                    <mxGeometry width="50" height="50" relative="1" as="geometry">
                        <mxPoint x="1060" y="501" as="sourcePoint"/>
                        <mxPoint x="1060" y="420" as="targetPoint"/>
                        <Array as="points">
                            <mxPoint x="1078" y="490"/>
                        </Array>
                    </mxGeometry>
                </mxCell>
                <mxCell id="vez7XN6jo1T4Vwc_0ygb-2" value="" style="endArrow=none;html=1;exitX=0.5;exitY=0;exitDx=0;exitDy=0;exitPerimeter=0;entryX=0;entryY=0.5;entryDx=0;entryDy=0;" edge="1" parent="1" source="Ls0L_75_kJ0PLhLrq7M0-1" target="x5owpVDUKT_WlZzTMBwm-4">
                    <mxGeometry width="50" height="50" relative="1" as="geometry">
                        <mxPoint x="90" y="420" as="sourcePoint"/>
                        <mxPoint x="470" y="180" as="targetPoint"/>
                        <Array as="points">
                            <mxPoint x="75" y="40"/>
                            <mxPoint x="440" y="40"/>
                            <mxPoint x="440" y="210"/>
                            <mxPoint x="440" y="359"/>
                        </Array>
                    </mxGeometry>
                </mxCell>
                <mxCell id="vez7XN6jo1T4Vwc_0ygb-6" value="" style="endArrow=none;html=1;exitX=0;exitY=0.5;exitDx=0;exitDy=0;entryX=0.75;entryY=0.1;entryDx=0;entryDy=0;entryPerimeter=0;" edge="1" parent="1" source="Ls0L_75_kJ0PLhLrq7M0-4" target="Ls0L_75_kJ0PLhLrq7M0-1">
                    <mxGeometry width="50" height="50" relative="1" as="geometry">
                        <mxPoint x="480" y="570" as="sourcePoint"/>
                        <mxPoint x="-30" y="450" as="targetPoint"/>
                        <Array as="points">
                            <mxPoint x="120" y="436"/>
                            <mxPoint x="120" y="505"/>
                        </Array>
                    </mxGeometry>
                </mxCell>
                <mxCell id="vez7XN6jo1T4Vwc_0ygb-8" value="" style="endArrow=none;html=1;exitX=1;exitY=0.3333333333333333;exitDx=0;exitDy=0;exitPerimeter=0;entryX=0;entryY=0.5;entryDx=0;entryDy=0;" edge="1" parent="1" source="Ls0L_75_kJ0PLhLrq7M0-1" target="x5owpVDUKT_WlZzTMBwm-12">
                    <mxGeometry width="50" height="50" relative="1" as="geometry">
                        <mxPoint x="690" y="530" as="sourcePoint"/>
                        <mxPoint x="740" y="480" as="targetPoint"/>
                    </mxGeometry>
                </mxCell>
                <mxCell id="vez7XN6jo1T4Vwc_0ygb-9" value="" style="endArrow=none;html=1;exitX=0.5;exitY=0.5;exitDx=0;exitDy=0;exitPerimeter=0;entryX=0;entryY=0.5;entryDx=0;entryDy=0;" edge="1" parent="1" source="Ls0L_75_kJ0PLhLrq7M0-1" target="Ls0L_75_kJ0PLhLrq7M0-6">
                    <mxGeometry width="50" height="50" relative="1" as="geometry">
                        <mxPoint x="690" y="530" as="sourcePoint"/>
                        <mxPoint x="740" y="480" as="targetPoint"/>
                        <Array as="points">
                            <mxPoint x="120" y="529"/>
                            <mxPoint x="120" y="756"/>
                        </Array>
                    </mxGeometry>
                </mxCell>
                <mxCell id="vez7XN6jo1T4Vwc_0ygb-11" value="" style="endArrow=none;html=1;exitX=1;exitY=1;exitDx=0;exitDy=0;exitPerimeter=0;entryX=0;entryY=0.5;entryDx=0;entryDy=0;" edge="1" parent="1" source="Ls0L_75_kJ0PLhLrq7M0-1" target="x5owpVDUKT_WlZzTMBwm-5">
                    <mxGeometry width="50" height="50" relative="1" as="geometry">
                        <mxPoint x="690" y="640" as="sourcePoint"/>
                        <mxPoint x="740" y="590" as="targetPoint"/>
                        <Array as="points">
                            <mxPoint x="90" y="1040"/>
                            <mxPoint x="480" y="1040"/>
                            <mxPoint x="480" y="679"/>
                        </Array>
                    </mxGeometry>
                </mxCell>
                <mxCell id="vez7XN6jo1T4Vwc_0ygb-15" value="" style="endArrow=none;html=1;exitX=0.5;exitY=0;exitDx=0;exitDy=0;exitPerimeter=0;entryX=1;entryY=0.5;entryDx=0;entryDy=0;" edge="1" parent="1" source="Ls0L_75_kJ0PLhLrq7M0-2" target="x5owpVDUKT_WlZzTMBwm-16">
                    <mxGeometry width="50" height="50" relative="1" as="geometry">
                        <mxPoint x="1510" y="390" as="sourcePoint"/>
                        <mxPoint x="1560" y="340" as="targetPoint"/>
                        <Array as="points">
                            <mxPoint x="1575" y="80"/>
                            <mxPoint x="1240" y="80"/>
                            <mxPoint x="1240" y="520"/>
                        </Array>
                    </mxGeometry>
                </mxCell>
                <mxCell id="vez7XN6jo1T4Vwc_0ygb-16" value="" style="endArrow=none;html=1;exitX=1;exitY=0.5;exitDx=0;exitDy=0;entryX=0.25;entryY=0.1;entryDx=0;entryDy=0;entryPerimeter=0;" edge="1" parent="1" source="Ls0L_75_kJ0PLhLrq7M0-15" target="Ls0L_75_kJ0PLhLrq7M0-2">
                    <mxGeometry width="50" height="50" relative="1" as="geometry">
                        <mxPoint x="1480" y="470" as="sourcePoint"/>
                        <mxPoint x="1530" y="420" as="targetPoint"/>
                        <Array as="points">
                            <mxPoint x="1480" y="350"/>
                            <mxPoint x="1480" y="505"/>
                        </Array>
                    </mxGeometry>
                </mxCell>
                <mxCell id="vez7XN6jo1T4Vwc_0ygb-17" value="" style="endArrow=none;html=1;exitX=0.5;exitY=0.5;exitDx=0;exitDy=0;exitPerimeter=0;entryX=1;entryY=0.5;entryDx=0;entryDy=0;" edge="1" parent="1" source="Ls0L_75_kJ0PLhLrq7M0-2" target="Ls0L_75_kJ0PLhLrq7M0-18">
                    <mxGeometry width="50" height="50" relative="1" as="geometry">
                        <mxPoint x="1240" y="520" as="sourcePoint"/>
                        <mxPoint x="1510" y="740" as="targetPoint"/>
                        <Array as="points">
                            <mxPoint x="1480" y="530"/>
                            <mxPoint x="1480" y="819"/>
                        </Array>
                    </mxGeometry>
                </mxCell>
                <mxCell id="o0_-yaP1Wy93v1NhGn8n-1" value="&amp;lt;&amp;lt;include&amp;gt;&amp;gt;" style="html=1;verticalAlign=bottom;labelBackgroundColor=none;endArrow=open;endFill=0;dashed=1;exitX=0;exitY=1;exitDx=0;exitDy=0;entryX=1;entryY=0.5;entryDx=0;entryDy=0;" edge="1" parent="1" source="x5owpVDUKT_WlZzTMBwm-4" target="Ls0L_75_kJ0PLhLrq7M0-4">
                    <mxGeometry x="0.2749" y="-2" width="160" relative="1" as="geometry">
                        <mxPoint x="400" y="450" as="sourcePoint"/>
                        <mxPoint x="560" y="450" as="targetPoint"/>
                        <Array as="points">
                            <mxPoint x="552" y="436"/>
                        </Array>
                        <mxPoint as="offset"/>
                    </mxGeometry>
                </mxCell>
                <mxCell id="o0_-yaP1Wy93v1NhGn8n-2" value="&amp;lt;&amp;lt;include&amp;gt;&amp;gt;" style="html=1;verticalAlign=bottom;labelBackgroundColor=none;endArrow=open;endFill=0;dashed=1;exitX=0;exitY=0;exitDx=0;exitDy=0;entryX=0.5;entryY=1;entryDx=0;entryDy=0;" edge="1" parent="1" source="x5owpVDUKT_WlZzTMBwm-5" target="x5owpVDUKT_WlZzTMBwm-4">
                    <mxGeometry x="-0.3584" width="160" relative="1" as="geometry">
                        <mxPoint x="562.318907218285" y="409.99530168705854" as="sourcePoint"/>
                        <mxPoint x="372.00000000000114" y="458.68" as="targetPoint"/>
                        <Array as="points">
                            <mxPoint x="480" y="650"/>
                            <mxPoint x="480" y="460"/>
                            <mxPoint x="606" y="460"/>
                        </Array>
                        <mxPoint as="offset"/>
                    </mxGeometry>
                </mxCell>
                <mxCell id="o0_-yaP1Wy93v1NhGn8n-3" value="&amp;lt;&amp;lt;include&amp;gt;&amp;gt;" style="html=1;verticalAlign=bottom;labelBackgroundColor=none;endArrow=open;endFill=0;dashed=1;exitX=1;exitY=0;exitDx=0;exitDy=0;entryX=1;entryY=1;entryDx=0;entryDy=0;" edge="1" parent="1" source="Ls0L_75_kJ0PLhLrq7M0-6" target="Ls0L_75_kJ0PLhLrq7M0-4">
                    <mxGeometry x="-0.1767" width="160" relative="1" as="geometry">
                        <mxPoint x="390" y="610" as="sourcePoint"/>
                        <mxPoint x="550" y="610" as="targetPoint"/>
                        <Array as="points">
                            <mxPoint x="400" y="728"/>
                            <mxPoint x="400" y="464"/>
                        </Array>
                        <mxPoint as="offset"/>
                    </mxGeometry>
                </mxCell>
            </root>
        </mxGraphModel>
    </diagram>
    <diagram id="xtn5nyhz2UywSQ8TGYe4" name="Accensione e spegnimento">
        <mxGraphModel dx="1667" dy="1048" grid="1" gridSize="10" guides="1" tooltips="1" connect="1" arrows="1" fold="1" page="1" pageScale="1" pageWidth="827" pageHeight="1169" math="0" shadow="0">
            <root>
                <mxCell id="0"/>
                <mxCell id="1" parent="0"/>
                <mxCell id="2" value="User" style="shape=umlActor;html=1;verticalLabelPosition=bottom;verticalAlign=top;align=center;" parent="1" vertex="1">
                    <mxGeometry x="100" y="489" width="30" height="60" as="geometry"/>
                </mxCell>
                <mxCell id="3" value="Coocker" style="shape=umlActor;html=1;verticalLabelPosition=bottom;verticalAlign=top;align=center;" parent="1" vertex="1">
                    <mxGeometry x="720" y="489" width="30" height="60" as="geometry"/>
                </mxCell>
                <mxCell id="6" value="&lt;font style=&quot;font-size: 11px;&quot;&gt;Pressione del pulsante di accensione&lt;/font&gt;" style="ellipse;whiteSpace=wrap;html=1;" parent="1" vertex="1">
                    <mxGeometry x="212" y="249" width="152" height="80" as="geometry"/>
                </mxCell>
                <mxCell id="7" value="&lt;font style=&quot;font-size: 11px;&quot;&gt;Richiede accensione del sistema&lt;/font&gt;" style="ellipse;whiteSpace=wrap;html=1;" parent="1" vertex="1">
                    <mxGeometry x="212" y="399" width="152" height="80" as="geometry"/>
                </mxCell>
                <mxCell id="8" value="&lt;font style=&quot;font-size: 11px;&quot;&gt;Pressione del pulsante di spegnimento per almeno 1 secondo&lt;/font&gt;" style="ellipse;whiteSpace=wrap;html=1;" parent="1" vertex="1">
                    <mxGeometry x="212" y="559" width="152" height="80" as="geometry"/>
                </mxCell>
                <mxCell id="9" value="&lt;font style=&quot;font-size: 11px;&quot;&gt;Richiede spegnimento del sistema&lt;/font&gt;" style="ellipse;whiteSpace=wrap;html=1;" parent="1" vertex="1">
                    <mxGeometry x="212" y="719" width="152" height="80" as="geometry"/>
                </mxCell>
                <mxCell id="10" value="" style="edgeStyle=none;html=1;endArrow=none;verticalAlign=bottom;fontSize=11;entryX=0;entryY=0.5;entryDx=0;entryDy=0;" parent="1" source="2" target="7" edge="1">
                    <mxGeometry width="160" relative="1" as="geometry">
                        <mxPoint x="110" y="379" as="sourcePoint"/>
                        <mxPoint x="270" y="379" as="targetPoint"/>
                        <Array as="points">
                            <mxPoint x="115" y="440"/>
                        </Array>
                    </mxGeometry>
                </mxCell>
                <mxCell id="13" value="" style="edgeStyle=none;html=1;endArrow=none;verticalAlign=bottom;fontSize=11;exitX=1;exitY=1;exitDx=0;exitDy=0;exitPerimeter=0;entryX=0;entryY=0.5;entryDx=0;entryDy=0;" parent="1" source="2" target="9" edge="1">
                    <mxGeometry width="160" relative="1" as="geometry">
                        <mxPoint x="230" y="519" as="sourcePoint"/>
                        <mxPoint x="130" y="699" as="targetPoint"/>
                        <Array as="points">
                            <mxPoint x="130" y="759"/>
                        </Array>
                    </mxGeometry>
                </mxCell>
                <mxCell id="14" value="&amp;lt;&amp;lt;include&amp;gt;&amp;gt;" style="edgeStyle=none;html=1;endArrow=open;verticalAlign=bottom;dashed=1;labelBackgroundColor=none;fontSize=11;exitX=0.5;exitY=0;exitDx=0;exitDy=0;" parent="1" source="7" target="6" edge="1">
                    <mxGeometry width="160" relative="1" as="geometry">
                        <mxPoint x="230" y="439" as="sourcePoint"/>
                        <mxPoint x="288" y="339" as="targetPoint"/>
                    </mxGeometry>
                </mxCell>
                <mxCell id="15" value="&amp;lt;&amp;lt;include&amp;gt;&amp;gt;" style="edgeStyle=none;html=1;endArrow=open;verticalAlign=bottom;dashed=1;labelBackgroundColor=none;fontSize=11;entryX=0.5;entryY=1;entryDx=0;entryDy=0;exitX=0.5;exitY=0;exitDx=0;exitDy=0;" parent="1" source="9" target="8" edge="1">
                    <mxGeometry y="-2" width="160" relative="1" as="geometry">
                        <mxPoint x="230" y="709" as="sourcePoint"/>
                        <mxPoint x="390" y="709" as="targetPoint"/>
                        <mxPoint as="offset"/>
                    </mxGeometry>
                </mxCell>
                <mxCell id="17" value="Il pulsante di accensione e spegnimento coincidono." style="shape=note;size=20;whiteSpace=wrap;html=1;fontSize=11;" parent="1" vertex="1">
                    <mxGeometry x="238" y="80" width="100" height="100" as="geometry"/>
                </mxCell>
                <mxCell id="18" value="" style="endArrow=none;dashed=1;html=1;dashPattern=1 3;strokeWidth=2;fontSize=11;entryX=0.5;entryY=1;entryDx=0;entryDy=0;entryPerimeter=0;exitX=0.5;exitY=0;exitDx=0;exitDy=0;" parent="1" source="6" target="17" edge="1">
                    <mxGeometry width="50" height="50" relative="1" as="geometry">
                        <mxPoint x="263" y="210" as="sourcePoint"/>
                        <mxPoint x="313" y="160" as="targetPoint"/>
                    </mxGeometry>
                </mxCell>
                <mxCell id="19" value="Il pulsante di accensione e spegnimento coincidono." style="shape=note;size=20;whiteSpace=wrap;html=1;fontSize=11;" parent="1" vertex="1">
                    <mxGeometry x="238" y="880" width="100" height="100" as="geometry"/>
                </mxCell>
                <mxCell id="20" value="" style="endArrow=none;dashed=1;html=1;dashPattern=1 3;strokeWidth=2;fontSize=11;entryX=0.5;entryY=1;entryDx=0;entryDy=0;exitX=0.5;exitY=0;exitDx=0;exitDy=0;exitPerimeter=0;" parent="1" source="19" target="9" edge="1">
                    <mxGeometry width="50" height="50" relative="1" as="geometry">
                        <mxPoint x="288" y="920" as="sourcePoint"/>
                        <mxPoint x="290" y="820" as="targetPoint"/>
                    </mxGeometry>
                </mxCell>
                <mxCell id="22" value="&lt;font style=&quot;font-size: 11px;&quot;&gt;Accensione del fornello&lt;/font&gt;" style="ellipse;whiteSpace=wrap;html=1;" parent="1" vertex="1">
                    <mxGeometry x="480" y="249" width="152" height="80" as="geometry"/>
                </mxCell>
                <mxCell id="23" value="&lt;font style=&quot;font-size: 11px;&quot;&gt;Settaggio potenza a 0W&lt;/font&gt;" style="ellipse;whiteSpace=wrap;html=1;" parent="1" vertex="1">
                    <mxGeometry x="480" y="399" width="152" height="80" as="geometry"/>
                </mxCell>
                <mxCell id="24" value="&lt;font style=&quot;font-size: 11px;&quot;&gt;Spegnimento indicatore luminoso&lt;/font&gt;" style="ellipse;whiteSpace=wrap;html=1;" parent="1" vertex="1">
                    <mxGeometry x="480" y="559" width="152" height="80" as="geometry"/>
                </mxCell>
                <mxCell id="25" value="&lt;font style=&quot;font-size: 11px;&quot;&gt;Spegnimento del fornello&lt;/font&gt;" style="ellipse;whiteSpace=wrap;html=1;" parent="1" vertex="1">
                    <mxGeometry x="480" y="719" width="152" height="80" as="geometry"/>
                </mxCell>
                <mxCell id="26" value="&amp;lt;&amp;lt;include&amp;gt;&amp;gt;" style="edgeStyle=none;html=1;endArrow=open;verticalAlign=bottom;dashed=1;labelBackgroundColor=none;fontSize=11;exitX=0.5;exitY=1;exitDx=0;exitDy=0;entryX=0.5;entryY=0;entryDx=0;entryDy=0;" parent="1" source="22" target="23" edge="1">
                    <mxGeometry width="160" relative="1" as="geometry">
                        <mxPoint x="498" y="439" as="sourcePoint"/>
                        <mxPoint x="610" y="360" as="targetPoint"/>
                    </mxGeometry>
                </mxCell>
                <mxCell id="27" value="&amp;lt;&amp;lt;include&amp;gt;&amp;gt;" style="edgeStyle=none;html=1;endArrow=open;verticalAlign=bottom;dashed=1;labelBackgroundColor=none;fontSize=11;entryX=0.5;entryY=1;entryDx=0;entryDy=0;exitX=0.5;exitY=0;exitDx=0;exitDy=0;" parent="1" source="25" target="24" edge="1">
                    <mxGeometry y="-2" width="160" relative="1" as="geometry">
                        <mxPoint x="498" y="709" as="sourcePoint"/>
                        <mxPoint x="658" y="709" as="targetPoint"/>
                        <mxPoint as="offset"/>
                    </mxGeometry>
                </mxCell>
                <mxCell id="28" value="" style="endArrow=none;html=1;fontSize=11;entryX=1;entryY=0.5;entryDx=0;entryDy=0;" parent="1" target="22" edge="1">
                    <mxGeometry width="50" height="50" relative="1" as="geometry">
                        <mxPoint x="730" y="480" as="sourcePoint"/>
                        <mxPoint x="710" y="340" as="targetPoint"/>
                        <Array as="points">
                            <mxPoint x="730" y="289"/>
                        </Array>
                    </mxGeometry>
                </mxCell>
                <mxCell id="29" value="" style="endArrow=none;html=1;fontSize=11;entryX=0;entryY=1;entryDx=0;entryDy=0;entryPerimeter=0;exitX=1;exitY=0.5;exitDx=0;exitDy=0;" parent="1" source="25" target="3" edge="1">
                    <mxGeometry width="50" height="50" relative="1" as="geometry">
                        <mxPoint x="670" y="700" as="sourcePoint"/>
                        <mxPoint x="720" y="650" as="targetPoint"/>
                        <Array as="points">
                            <mxPoint x="720" y="760"/>
                        </Array>
                    </mxGeometry>
                </mxCell>
                <mxCell id="30" value="&lt;font style=&quot;font-size: 11px;&quot;&gt;Attivazione indicatore luminoso&lt;/font&gt;" style="ellipse;whiteSpace=wrap;html=1;" parent="1" vertex="1">
                    <mxGeometry x="480" y="90" width="152" height="80" as="geometry"/>
                </mxCell>
                <mxCell id="31" value="&amp;lt;&amp;lt;include&amp;gt;&amp;gt;" style="edgeStyle=none;html=1;endArrow=open;verticalAlign=bottom;dashed=1;labelBackgroundColor=none;fontSize=11;exitX=0.5;exitY=0;exitDx=0;exitDy=0;" parent="1" source="22" target="30" edge="1">
                    <mxGeometry width="160" relative="1" as="geometry">
                        <mxPoint x="566" y="339" as="sourcePoint"/>
                        <mxPoint x="566" y="409" as="targetPoint"/>
                    </mxGeometry>
                </mxCell>
                <mxCell id="32" value="&amp;lt;&amp;lt;use&amp;gt;&amp;gt;" style="edgeStyle=none;html=1;endArrow=open;verticalAlign=bottom;dashed=1;labelBackgroundColor=none;fontSize=11;exitX=0;exitY=0.5;exitDx=0;exitDy=0;entryX=1;entryY=0.5;entryDx=0;entryDy=0;" parent="1" source="22" target="6" edge="1">
                    <mxGeometry width="160" relative="1" as="geometry">
                        <mxPoint x="576" y="349" as="sourcePoint"/>
                        <mxPoint x="410" y="340" as="targetPoint"/>
                    </mxGeometry>
                </mxCell>
                <mxCell id="33" value="&amp;lt;&amp;lt;use&amp;gt;&amp;gt;" style="edgeStyle=none;html=1;endArrow=open;verticalAlign=bottom;dashed=1;labelBackgroundColor=none;fontSize=11;exitX=0;exitY=0.5;exitDx=0;exitDy=0;entryX=1;entryY=0.5;entryDx=0;entryDy=0;" parent="1" source="25" target="9" edge="1">
                    <mxGeometry width="160" relative="1" as="geometry">
                        <mxPoint x="470.9999999999998" y="710" as="sourcePoint"/>
                        <mxPoint x="354.99999999999955" y="710" as="targetPoint"/>
                    </mxGeometry>
                </mxCell>
            </root>
        </mxGraphModel>
    </diagram>
    <diagram id="arO6K7zrH_1RvllV-8C6" name="Controllo potenza e presenza">
        <mxGraphModel dx="1429" dy="899" grid="1" gridSize="10" guides="1" tooltips="1" connect="1" arrows="1" fold="1" page="1" pageScale="1" pageWidth="827" pageHeight="1169" math="0" shadow="0">
            <root>
                <mxCell id="0"/>
                <mxCell id="1" parent="0"/>
                <mxCell id="R3sYWDL6FKTSdRrRiP7M-1" value="User" style="shape=umlActor;html=1;verticalLabelPosition=bottom;verticalAlign=top;align=center;" parent="1" vertex="1">
                    <mxGeometry x="69" y="569" width="30" height="60" as="geometry"/>
                </mxCell>
                <mxCell id="R3sYWDL6FKTSdRrRiP7M-2" value="Coocker" style="shape=umlActor;html=1;verticalLabelPosition=bottom;verticalAlign=top;align=center;" parent="1" vertex="1">
                    <mxGeometry x="699" y="567" width="30" height="60" as="geometry"/>
                </mxCell>
                <mxCell id="R3sYWDL6FKTSdRrRiP7M-3" value="&lt;font style=&quot;font-size: 11px;&quot;&gt;Pressione del pulsante di aumento della potenza per almeno 1 secondo&lt;/font&gt;" style="ellipse;whiteSpace=wrap;html=1;" parent="1" vertex="1">
                    <mxGeometry x="139" y="240" width="152" height="80" as="geometry"/>
                </mxCell>
                <mxCell id="R3sYWDL6FKTSdRrRiP7M-4" value="&lt;font style=&quot;font-size: 11px;&quot;&gt;Richiede aumento della potenza&lt;/font&gt;" style="ellipse;whiteSpace=wrap;html=1;" parent="1" vertex="1">
                    <mxGeometry x="139" y="399" width="152" height="80" as="geometry"/>
                </mxCell>
                <mxCell id="R3sYWDL6FKTSdRrRiP7M-5" value="&lt;font style=&quot;font-size: 11px;&quot;&gt;Richiede diminuzione della potenza&lt;/font&gt;" style="ellipse;whiteSpace=wrap;html=1;" parent="1" vertex="1">
                    <mxGeometry x="139" y="719" width="152" height="80" as="geometry"/>
                </mxCell>
                <mxCell id="R3sYWDL6FKTSdRrRiP7M-6" value="&lt;font style=&quot;font-size: 11px;&quot;&gt;Pressione del pulsante di diminuzione della potenza per almeno 1 secondo&lt;/font&gt;" style="ellipse;whiteSpace=wrap;html=1;" parent="1" vertex="1">
                    <mxGeometry x="139" y="880" width="152" height="80" as="geometry"/>
                </mxCell>
                <mxCell id="R3sYWDL6FKTSdRrRiP7M-7" value="" style="edgeStyle=none;html=1;endArrow=none;verticalAlign=bottom;fontSize=11;entryX=0;entryY=0.5;entryDx=0;entryDy=0;" parent="1" source="R3sYWDL6FKTSdRrRiP7M-1" target="R3sYWDL6FKTSdRrRiP7M-4" edge="1">
                    <mxGeometry width="160" relative="1" as="geometry">
                        <mxPoint x="79" y="379" as="sourcePoint"/>
                        <mxPoint x="239" y="379" as="targetPoint"/>
                        <Array as="points">
                            <mxPoint x="84" y="440"/>
                        </Array>
                    </mxGeometry>
                </mxCell>
                <mxCell id="R3sYWDL6FKTSdRrRiP7M-9" value="&amp;lt;&amp;lt;include&amp;gt;&amp;gt;" style="edgeStyle=none;html=1;endArrow=open;verticalAlign=bottom;dashed=1;labelBackgroundColor=none;fontSize=11;exitX=0.5;exitY=0;exitDx=0;exitDy=0;" parent="1" source="R3sYWDL6FKTSdRrRiP7M-4" target="R3sYWDL6FKTSdRrRiP7M-3" edge="1">
                    <mxGeometry width="160" relative="1" as="geometry">
                        <mxPoint x="199" y="439" as="sourcePoint"/>
                        <mxPoint x="257" y="339" as="targetPoint"/>
                    </mxGeometry>
                </mxCell>
                <mxCell id="R3sYWDL6FKTSdRrRiP7M-16" value="&lt;font style=&quot;font-size: 11px;&quot;&gt;Accensione indicatore luminoso in accordo alla potenza erogata&lt;/font&gt;" style="ellipse;whiteSpace=wrap;html=1;" parent="1" vertex="1">
                    <mxGeometry x="349" y="398" width="152" height="80" as="geometry"/>
                </mxCell>
                <mxCell id="R3sYWDL6FKTSdRrRiP7M-17" value="&lt;font style=&quot;font-size: 11px;&quot;&gt;Controllo presenza pentola&lt;/font&gt;" style="ellipse;whiteSpace=wrap;html=1;" parent="1" vertex="1">
                    <mxGeometry x="357" y="719" width="152" height="80" as="geometry"/>
                </mxCell>
                <mxCell id="R3sYWDL6FKTSdRrRiP7M-25" value="&amp;lt;&amp;lt;use&amp;gt;&amp;gt;" style="edgeStyle=none;html=1;endArrow=open;verticalAlign=bottom;dashed=1;labelBackgroundColor=none;fontSize=11;exitX=0.5;exitY=0;exitDx=0;exitDy=0;entryX=1;entryY=0.5;entryDx=0;entryDy=0;" parent="1" source="R3sYWDL6FKTSdRrRiP7M-35" target="R3sYWDL6FKTSdRrRiP7M-3" edge="1">
                    <mxGeometry x="0.5115" width="160" relative="1" as="geometry">
                        <mxPoint x="449" y="280" as="sourcePoint"/>
                        <mxPoint x="379" y="340" as="targetPoint"/>
                        <Array as="points">
                            <mxPoint x="579" y="280"/>
                        </Array>
                        <mxPoint as="offset"/>
                    </mxGeometry>
                </mxCell>
                <mxCell id="R3sYWDL6FKTSdRrRiP7M-27" value="&lt;font style=&quot;font-size: 11px;&quot;&gt;Posizionamento della pentola&lt;/font&gt;" style="ellipse;whiteSpace=wrap;html=1;" parent="1" vertex="1">
                    <mxGeometry x="139" y="559" width="152" height="80" as="geometry"/>
                </mxCell>
                <mxCell id="R3sYWDL6FKTSdRrRiP7M-28" value="&amp;lt;&amp;lt;include&amp;gt;&amp;gt;" style="edgeStyle=none;html=1;endArrow=open;verticalAlign=bottom;dashed=1;labelBackgroundColor=none;fontSize=11;exitX=0.5;exitY=1;exitDx=0;exitDy=0;entryX=0.5;entryY=0;entryDx=0;entryDy=0;" parent="1" source="R3sYWDL6FKTSdRrRiP7M-5" target="R3sYWDL6FKTSdRrRiP7M-6" edge="1">
                    <mxGeometry width="160" relative="1" as="geometry">
                        <mxPoint x="149" y="779" as="sourcePoint"/>
                        <mxPoint x="149" y="700" as="targetPoint"/>
                    </mxGeometry>
                </mxCell>
                <mxCell id="R3sYWDL6FKTSdRrRiP7M-29" value="" style="endArrow=none;html=1;fontSize=11;exitX=0.5;exitY=0.5;exitDx=0;exitDy=0;exitPerimeter=0;entryX=0;entryY=0.5;entryDx=0;entryDy=0;" parent="1" source="R3sYWDL6FKTSdRrRiP7M-1" target="R3sYWDL6FKTSdRrRiP7M-27" edge="1">
                    <mxGeometry width="50" height="50" relative="1" as="geometry">
                        <mxPoint x="279" y="650" as="sourcePoint"/>
                        <mxPoint x="329" y="600" as="targetPoint"/>
                    </mxGeometry>
                </mxCell>
                <mxCell id="R3sYWDL6FKTSdRrRiP7M-33" value="" style="endArrow=none;html=1;fontSize=11;exitX=1;exitY=1;exitDx=0;exitDy=0;exitPerimeter=0;entryX=0;entryY=0.5;entryDx=0;entryDy=0;" parent="1" source="R3sYWDL6FKTSdRrRiP7M-1" target="R3sYWDL6FKTSdRrRiP7M-5" edge="1">
                    <mxGeometry width="50" height="50" relative="1" as="geometry">
                        <mxPoint x="94" y="609" as="sourcePoint"/>
                        <mxPoint x="191" y="609" as="targetPoint"/>
                        <Array as="points">
                            <mxPoint x="99" y="759"/>
                        </Array>
                    </mxGeometry>
                </mxCell>
                <mxCell id="R3sYWDL6FKTSdRrRiP7M-35" value="&lt;font style=&quot;font-size: 11px;&quot;&gt;Attivazione del fornello alla potenza selezionata&lt;/font&gt;" style="ellipse;whiteSpace=wrap;html=1;" parent="1" vertex="1">
                    <mxGeometry x="501" y="557" width="152" height="80" as="geometry"/>
                </mxCell>
                <mxCell id="R3sYWDL6FKTSdRrRiP7M-37" value="&amp;lt;&amp;lt;use&amp;gt;&amp;gt;" style="edgeStyle=none;html=1;endArrow=open;verticalAlign=bottom;dashed=1;labelBackgroundColor=none;fontSize=11;exitX=0.5;exitY=1;exitDx=0;exitDy=0;entryX=1;entryY=0.5;entryDx=0;entryDy=0;" parent="1" source="R3sYWDL6FKTSdRrRiP7M-35" target="R3sYWDL6FKTSdRrRiP7M-6" edge="1">
                    <mxGeometry x="0.5115" width="160" relative="1" as="geometry">
                        <mxPoint x="587" y="567" as="sourcePoint"/>
                        <mxPoint x="329" y="730" as="targetPoint"/>
                        <Array as="points">
                            <mxPoint x="579" y="920"/>
                        </Array>
                        <mxPoint as="offset"/>
                    </mxGeometry>
                </mxCell>
                <mxCell id="R3sYWDL6FKTSdRrRiP7M-38" value="&amp;lt;&amp;lt;include&amp;gt;&amp;gt;" style="edgeStyle=none;html=1;endArrow=open;verticalAlign=bottom;dashed=1;labelBackgroundColor=none;fontSize=11;exitX=0;exitY=0;exitDx=0;exitDy=0;entryX=1;entryY=0.5;entryDx=0;entryDy=0;" parent="1" source="R3sYWDL6FKTSdRrRiP7M-35" target="R3sYWDL6FKTSdRrRiP7M-16" edge="1">
                    <mxGeometry width="160" relative="1" as="geometry">
                        <mxPoint x="539" y="519" as="sourcePoint"/>
                        <mxPoint x="539" y="440" as="targetPoint"/>
                        <Array as="points">
                            <mxPoint x="523" y="440"/>
                        </Array>
                    </mxGeometry>
                </mxCell>
                <mxCell id="R3sYWDL6FKTSdRrRiP7M-39" value="&amp;lt;&amp;lt;include&amp;gt;&amp;gt;" style="edgeStyle=none;html=1;endArrow=open;verticalAlign=bottom;dashed=1;labelBackgroundColor=none;fontSize=11;exitX=0;exitY=1;exitDx=0;exitDy=0;entryX=1;entryY=0.5;entryDx=0;entryDy=0;" parent="1" source="R3sYWDL6FKTSdRrRiP7M-35" target="R3sYWDL6FKTSdRrRiP7M-17" edge="1">
                    <mxGeometry width="160" relative="1" as="geometry">
                        <mxPoint x="533.2598846298224" y="578.7157287525381" as="sourcePoint"/>
                        <mxPoint x="511" y="448" as="targetPoint"/>
                        <Array as="points">
                            <mxPoint x="523" y="760"/>
                        </Array>
                    </mxGeometry>
                </mxCell>
                <mxCell id="R3sYWDL6FKTSdRrRiP7M-40" value="&amp;lt;&amp;lt;use&amp;gt;&amp;gt;" style="edgeStyle=none;html=1;endArrow=open;verticalAlign=bottom;dashed=1;labelBackgroundColor=none;fontSize=11;exitX=0.5;exitY=0;exitDx=0;exitDy=0;entryX=1;entryY=0.5;entryDx=0;entryDy=0;" parent="1" source="R3sYWDL6FKTSdRrRiP7M-17" target="R3sYWDL6FKTSdRrRiP7M-27" edge="1">
                    <mxGeometry x="0.5115" width="160" relative="1" as="geometry">
                        <mxPoint x="587" y="567" as="sourcePoint"/>
                        <mxPoint x="301" y="290" as="targetPoint"/>
                        <Array as="points">
                            <mxPoint x="433" y="600"/>
                        </Array>
                        <mxPoint as="offset"/>
                    </mxGeometry>
                </mxCell>
                <mxCell id="R3sYWDL6FKTSdRrRiP7M-41" value="" style="endArrow=none;html=1;fontSize=11;exitX=0.5;exitY=0.5;exitDx=0;exitDy=0;exitPerimeter=0;entryX=1;entryY=0.5;entryDx=0;entryDy=0;" parent="1" source="R3sYWDL6FKTSdRrRiP7M-2" target="R3sYWDL6FKTSdRrRiP7M-35" edge="1">
                    <mxGeometry width="50" height="50" relative="1" as="geometry">
                        <mxPoint x="399" y="630" as="sourcePoint"/>
                        <mxPoint x="449" y="580" as="targetPoint"/>
                    </mxGeometry>
                </mxCell>
                <mxCell id="R3sYWDL6FKTSdRrRiP7M-42" value="&lt;p&gt;La nuova potenza verrà applicata&amp;nbsp;&lt;span style=&quot;background-color: initial;&quot;&gt;se entro 5 secondi questa non viene&amp;nbsp;&lt;/span&gt;&lt;span style=&quot;background-color: initial;&quot;&gt;variata ulteriormente.&amp;nbsp; &amp;nbsp; &amp;nbsp;&lt;/span&gt;&lt;/p&gt;&lt;p&gt;&lt;/p&gt;&lt;div style=&quot;&quot;&gt;&lt;/div&gt;&lt;p&gt;&lt;/p&gt;" style="shape=note;size=20;whiteSpace=wrap;html=1;fontSize=11;align=left;" parent="1" vertex="1">
                    <mxGeometry x="596" y="390" width="183" height="89" as="geometry"/>
                </mxCell>
                <mxCell id="R3sYWDL6FKTSdRrRiP7M-43" value="&lt;p&gt;Qualora la pentola venisse rimossa mentre il fornello è attivo, il &lt;br&gt;    dispositivo segnala l'anomalia attraverso un apposito indicatore e se entro 10 secondi la pentola non viene riposizionata, il fornello ritorna &lt;br&gt;    alla potenza di 0W.&amp;nbsp; &amp;nbsp;&lt;br&gt;&lt;/p&gt;&lt;p&gt;&lt;/p&gt;&lt;div style=&quot;&quot;&gt;&lt;/div&gt;&lt;p&gt;&lt;/p&gt;" style="shape=note;size=20;whiteSpace=wrap;html=1;fontSize=11;align=left;" parent="1" vertex="1">
                    <mxGeometry x="596" y="719" width="183" height="131" as="geometry"/>
                </mxCell>
                <mxCell id="d0hgEvOQBAR4DHkHnrBQ-1" value="" style="endArrow=none;dashed=1;html=1;dashPattern=1 3;strokeWidth=2;fontSize=11;entryX=1;entryY=1;entryDx=0;entryDy=0;exitX=0;exitY=0;exitDx=81.5;exitDy=0;exitPerimeter=0;" parent="1" source="R3sYWDL6FKTSdRrRiP7M-43" target="R3sYWDL6FKTSdRrRiP7M-35" edge="1">
                    <mxGeometry width="50" height="50" relative="1" as="geometry">
                        <mxPoint x="639" y="718" as="sourcePoint"/>
                        <mxPoint x="639" y="637" as="targetPoint"/>
                        <Array as="points">
                            <mxPoint x="679" y="625"/>
                        </Array>
                    </mxGeometry>
                </mxCell>
                <mxCell id="d0hgEvOQBAR4DHkHnrBQ-2" value="" style="endArrow=none;dashed=1;html=1;dashPattern=1 3;strokeWidth=2;fontSize=11;entryX=0.5;entryY=1;entryDx=0;entryDy=0;exitX=1;exitY=0;exitDx=0;exitDy=0;entryPerimeter=0;" parent="1" source="R3sYWDL6FKTSdRrRiP7M-35" target="R3sYWDL6FKTSdRrRiP7M-42" edge="1">
                    <mxGeometry width="50" height="50" relative="1" as="geometry">
                        <mxPoint x="669" y="581" as="sourcePoint"/>
                        <mxPoint x="669" y="500" as="targetPoint"/>
                        <Array as="points">
                            <mxPoint x="687" y="570"/>
                        </Array>
                    </mxGeometry>
                </mxCell>
                <mxCell id="r0ATPN1LXjp2X8pMib8C-1" value="&lt;p&gt;&lt;/p&gt;&lt;div style=&quot;&quot;&gt;&lt;span style=&quot;background-color: initial;&quot;&gt;Tutte le operazioni descritte presuppongono che il fornello sia stato&lt;/span&gt;&lt;/div&gt;      precedentemente acceso.&amp;nbsp; &amp;nbsp; &amp;nbsp;&lt;p&gt;&lt;/p&gt;" style="shape=note;size=20;whiteSpace=wrap;html=1;fontSize=11;align=left;" parent="1" vertex="1">
                    <mxGeometry x="40" y="40" width="200" height="70" as="geometry"/>
                </mxCell>
            </root>
        </mxGraphModel>
    </diagram>
</mxfile>